<?xml version="1.0" encoding="UTF-8"?>
<svg width="1024" height="1024" viewBox="0 0 1024 1024" xmlns="http://www.w3.org/2000/svg" xmlns:xlink="http://www.w3.org/1999/xlink">
  <!-- transparent background -->
  <svg x="154" y="154" width="716" height="716" viewBox="0 0 1459 1450" style="fill-rule:evenodd;clip-rule:evenodd;stroke-linejoin:round;stroke-miterlimit:2;">
    <g transform="matrix(0.11811,0,0,0.11811,-528.935302,-817.1132)">
        <path d="M8348.87,11941.83L8357.29,14093.5C8329.76,14218.52 8349.91,14108.11 8355.71,14270.9C8358.26,14342.52 8359.16,14409.73 8359.16,14481.51L8464.98,14466.76L12164.43,14480.91C12238.59,14424.74 12293.95,14381.46 12364.26,14323.5C12466.74,14239.01 12458.75,14202.1 12547.73,14120.44C12726.17,13956.71 12646.38,14096.43 12942.39,13774.35L13764.52,13077.87C14455.1,12569.17 15233.89,12428.99 16225.12,12484.82C16290.27,12489.06 16319.21,12460.75 16330.94,12405.04L16330.94,11825.48C16329.43,11721.37 16322.56,11633.98 16295.67,11518.55L8323.89,11518.55C8323.89,11673.1 8309.48,11798.55 8348.87,11941.83Z" style="fill:rgb(137,203,87);"/>
        <path d="M12164.43,14480.91L9200.99,17122.42C8878.39,17403.68 8866.06,17484.8 8608.61,17487.65C8309.68,17490.96 7985.17,17495.29 7688.97,17479.75C7490.88,17532.64 7544.64,17636.75 7546.76,18045.43L7568.72,18488.08C7602.72,18740.83 7570.29,18580.7 7618.42,18608.67L9230.08,18608.74C9318.89,17980.06 9010.32,18324.11 9847.08,17661.51C10555.17,17100.8 10431.6,17249.04 11780.83,17246.6C12113.48,17246 12175.72,17277.4 12384.68,17438.46C12682.51,17668.01 12952.82,17862.59 13255.28,18107.27L13252.423,18668.107L15140.117,18667.937L15131.65,17479.75C15010.58,17398.68 14899.41,17324.61 14771.87,17239.87L13764.42,16448.38C13557.83,16241.31 13376.25,16032.21 13335.7,15676.13C13299.59,15359.07 13486.66,14903.14 13579.98,14693.51C13604.51,14638.42 13638.26,14565.57 13673.65,14504.99C14144.66,13698.66 14926.62,13053.02 15781.19,12697.19C15877.9,12656.92 15918.46,12642.92 16008.81,12608.14C16053.64,12590.88 16055.76,12595.67 16109.52,12567.77C16119.52,12562.58 16148.4,12546.25 16157.55,12540.2C16229.63,12492.64 16161.23,12554.7 16225.12,12484.82C15233.89,12428.99 14455.1,12569.17 13764.52,13077.87L12942.39,13774.35C12646.38,14096.43 12726.17,13956.71 12547.73,14120.44C12458.75,14202.1 12466.74,14239.01 12364.26,14323.5C12293.95,14381.46 12238.59,14424.74 12164.43,14480.91Z" style="fill:rgb(66,153,77);"/>
        <path d="M7618.42,18608.67C7634.78,18647.74 7640.51,18668.6 7658.08,18679.04L8283.11,18679.04L15024.15,18675.69C15148.62,18639.98 15058.86,18718.5 15131.65,18608.67L13260.89,18608.84L13255.28,18107.27C12952.82,17862.59 12682.51,17668.01 12384.68,17438.46C12175.72,17277.4 12113.48,17246 11780.83,17246.6C10431.6,17249.04 10555.17,17100.8 9847.08,17661.51C9010.32,18324.11 9318.89,17980.06 9230.08,18608.74L7618.42,18608.67Z" style="fill:rgb(29,105,53);"/>
        <path d="M8003.04,14093.5L8007,11941.83C7999.4,11937.06 7986.69,11923.29 7982.32,11931.08C7977.86,11939.03 7963.01,11922.82 7956.62,11921.35L4972.92,11906.56C5088.37,12402.12 5715.85,13085.34 6111.27,13378.43C6533.55,13691.43 7289.35,14093.5 8003.04,14093.5Z" style="fill:rgb(137,203,87);"/>
        <path d="M7688.97,17479.75C7985.17,17495.29 8309.68,17490.96 8608.61,17487.65C8866.06,17484.8 8878.39,17403.68 9200.99,17122.42L12164.43,14480.91L8464.98,14466.76C8471.06,14473.89 8481.39,14474.44 8484.98,14486.52C8498.36,14531.59 8670.08,14579.17 8705.36,14594.16C9333.03,14860.86 9827.67,15457.64 9317.64,16145.45C8911.7,16692.9 7780.96,17354.18 7688.97,17479.75Z" style="fill:rgb(29,105,53);"/>
        <path d="M8003.04,14093.5L8357.29,14093.5L8348.87,11941.83L8007,11941.83L8003.04,14093.5Z" style="fill:rgb(29,105,53);"/>
        <g transform="matrix(0.422761,0,0,0.422761,5484.748528,4258.552005)">
            <path d="M8576.53,11274.32C8576.53,12344.13 8944.15,13392.03 9803.38,13928.01C10234.03,14196.65 10232.38,14139.21 10814.44,13688.62C11011.38,13536.17 11167.72,13328.02 11300.27,13116.11C11620.95,12603.45 11751.53,12024.85 11751.53,11274.32C10987.7,11274.32 10557.45,10832.21 10164.03,10568.76C9966.82,10740.17 9715.4,10899.06 9482.12,11015.75C9244.23,11134.74 8914.81,11274.32 8576.53,11274.32Z" style="fill:rgb(136,203,87);"/>
        </g>
        <g transform="matrix(0.422761,0,0,0.422761,8473.487839,4258.552005)">
            <path d="M8576.53,11274.32C8576.53,12344.13 8944.15,13392.03 9803.38,13928.01C10234.03,14196.65 10232.38,14139.21 10814.44,13688.62C11011.38,13536.17 11167.72,13328.02 11300.27,13116.11C11620.95,12603.45 11751.53,12024.85 11751.53,11274.32C10987.7,11274.32 10557.45,10832.21 10164.03,10568.76C9966.82,10740.17 9715.4,10899.06 9482.12,11015.75C9244.23,11134.74 8914.81,11274.32 8576.53,11274.32Z" style="fill:rgb(136,203,87);"/>
        </g>
        <g transform="matrix(0.422761,0,0,0.422761,6991.818209,2726.082273)">
            <path d="M8576.53,11274.32C8576.53,12344.13 8944.15,13392.03 9803.38,13928.01C10234.03,14196.65 10232.38,14139.21 10814.44,13688.62C11011.38,13536.17 11167.72,13328.02 11300.27,13116.11C11620.95,12603.45 11751.53,12024.85 11751.53,11274.32C10987.7,11274.32 10557.45,10832.21 10164.03,10568.76C9966.82,10740.17 9715.4,10899.06 9482.12,11015.75C9244.23,11134.74 8914.81,11274.32 8576.53,11274.32Z" style="fill:rgb(136,203,87);"/>
        </g>
    </g>
  </svg>
</svg>